<?xml version="1.0" encoding="UTF-8" standalone="no"?>
<!DOCTYPE svg PUBLIC "-//W3C//DTD SVG 1.1//EN"
 "http://www.w3.org/Graphics/SVG/1.1/DTD/svg11.dtd">
<!-- Generated by graphviz version 8.1.0 (0)
 -->
<!-- Pages: 1 -->
<svg width="710pt" height="44pt"
 viewBox="0.00 0.00 710.32 44.00" xmlns="http://www.w3.org/2000/svg" xmlns:xlink="http://www.w3.org/1999/xlink">
<g id="graph0" class="graph" transform="scale(1 1) rotate(0) translate(4 40)">
<polygon fill="white" stroke="none" points="-4,4 -4,-40 706.32,-40 706.32,4 -4,4"/>
<!-- Subdirectory.md -->
<g id="node1" class="node">
<title>Subdirectory.md</title>
<ellipse fill="none" stroke="red" cx="243.32" cy="-18" rx="58.52" ry="18"/>
<text text-anchor="middle" x="243.32" y="-12.95" font-family="Times,serif" font-size="14.00">Subdirectory</text>
</g>
<!-- Subdirectory/8.md -->
<g id="node2" class="node">
<title>Subdirectory/8.md</title>
<ellipse fill="none" stroke="black" cx="39.58" cy="-18" rx="39.58" ry="18"/>
<text text-anchor="middle" x="39.58" y="-12.95" font-family="Times,serif" font-size="14.00">Zettel 8</text>
</g>
<!-- Subdirectory.md&#45;&gt;Subdirectory/8.md -->
<g id="edge1" class="edge">
<title>Subdirectory.md&#45;&gt;Subdirectory/8.md</title>
<path fill="none" stroke="black" d="M184.39,-18C154.62,-18 118.85,-18 90.31,-18"/>
<polygon fill="black" stroke="black" points="90.36,-14.5 80.36,-18 90.36,-21.5 90.36,-14.5"/>
</g>
<!-- Subdirectory/6.md -->
<g id="node3" class="node">
<title>Subdirectory/6.md</title>
<ellipse fill="none" stroke="black" cx="458.73" cy="-18" rx="39.58" ry="18"/>
<text text-anchor="middle" x="458.73" y="-12.95" font-family="Times,serif" font-size="14.00">Zettel 6</text>
</g>
<!-- Subdirectory.md&#45;&gt;Subdirectory/6.md -->
<g id="edge2" class="edge">
<title>Subdirectory.md&#45;&gt;Subdirectory/6.md</title>
<path fill="none" stroke="black" d="M302.19,-18C335.28,-18 376.18,-18 407.87,-18"/>
<polygon fill="black" stroke="black" points="407.67,-21.5 417.67,-18 407.67,-14.5 407.67,-21.5"/>
</g>
<!-- Subdirectory/7.md -->
<g id="node4" class="node">
<title>Subdirectory/7.md</title>
<ellipse fill="none" stroke="black" cx="662.74" cy="-18" rx="39.58" ry="18"/>
<text text-anchor="middle" x="662.74" y="-12.95" font-family="Times,serif" font-size="14.00">Zettel 7</text>
</g>
<!-- Subdirectory/6.md&#45;&gt;Subdirectory/7.md -->
<g id="edge3" class="edge">
<title>Subdirectory/6.md&#45;&gt;Subdirectory/7.md</title>
<path fill="none" stroke="black" d="M498.55,-18C530.88,-18 576.7,-18 611.72,-18"/>
<polygon fill="black" stroke="black" points="611.68,-21.5 621.68,-18 611.68,-14.5 611.68,-21.5"/>
</g>
</g>
</svg>
