<?xml version="1.0" encoding="UTF-8" standalone="no"?>
<!DOCTYPE svg PUBLIC "-//W3C//DTD SVG 1.1//EN"
 "http://www.w3.org/Graphics/SVG/1.1/DTD/svg11.dtd">
<!-- Generated by graphviz version 8.1.0 (0)
 -->
<!-- Pages: 1 -->
<svg width="397pt" height="340pt"
 viewBox="0.00 0.00 397.00 340.00" xmlns="http://www.w3.org/2000/svg" xmlns:xlink="http://www.w3.org/1999/xlink">
<g id="graph0" class="graph" transform="scale(1 1) rotate(0) translate(4 336)">
<polygon fill="white" stroke="none" points="-4,4 -4,-336 393,-336 393,4 -4,4"/>
<!-- 1.md -->
<g id="node1" class="node">
<title>1.md</title>
<ellipse fill="none" stroke="black" cx="96.88" cy="-131.52" rx="39.58" ry="18"/>
<text text-anchor="middle" x="96.88" y="-126.47" font-family="Times,serif" font-size="14.00">Zettel 1</text>
</g>
<!-- 3.md -->
<g id="node2" class="node">
<title>3.md</title>
<ellipse fill="none" stroke="black" cx="222.8" cy="-228.33" rx="39.58" ry="18"/>
<text text-anchor="middle" x="222.8" y="-223.28" font-family="Times,serif" font-size="14.00">Zettel 3</text>
</g>
<!-- 1.md&#45;&gt;3.md -->
<g id="edge1" class="edge">
<title>1.md&#45;&gt;3.md</title>
<path fill="none" stroke="black" d="M117.4,-147.29C138.16,-163.26 170.45,-188.08 193.82,-206.05"/>
<polygon fill="black" stroke="black" points="191.24,-209.25 201.3,-212.57 195.51,-203.7 191.24,-209.25"/>
</g>
<!-- 2.md -->
<g id="node3" class="node">
<title>2.md</title>
<ellipse fill="none" stroke="black" cx="74.3" cy="-71.06" rx="39.58" ry="18"/>
<text text-anchor="middle" x="74.3" y="-66.01" font-family="Times,serif" font-size="14.00">Zettel 2</text>
</g>
<!-- 1.md&#45;&gt;2.md -->
<g id="edge2" class="edge">
<title>1.md&#45;&gt;2.md</title>
<path fill="none" stroke="black" d="M90.11,-113.38C88.45,-108.96 86.65,-104.12 84.86,-99.35"/>
<polygon fill="black" stroke="black" points="87.85,-98.33 81.07,-90.19 81.29,-100.78 87.85,-98.33"/>
</g>
<!-- 4.md -->
<g id="node4" class="node">
<title>4.md</title>
<ellipse fill="none" stroke="black" cx="314.73" cy="-314.14" rx="39.58" ry="18"/>
<text text-anchor="middle" x="314.73" y="-309.09" font-family="Times,serif" font-size="14.00">Zettel 4</text>
</g>
<!-- 3.md&#45;&gt;4.md -->
<g id="edge3" class="edge">
<title>3.md&#45;&gt;4.md</title>
<path fill="none" stroke="black" d="M240.53,-244.88C254.39,-257.82 273.84,-275.98 289.35,-290.46"/>
<polygon fill="black" stroke="black" points="286.36,-292.38 296.06,-296.65 291.13,-287.27 286.36,-292.38"/>
</g>
<!-- 9.md -->
<g id="node5" class="node">
<title>9.md</title>
<ellipse fill="none" stroke="red" cx="347.24" cy="-127.64" rx="39.58" ry="18"/>
<text text-anchor="middle" x="347.24" y="-122.59" font-family="Times,serif" font-size="14.00">Zettel 9</text>
</g>
<!-- Archive.md -->
<g id="node6" class="node">
<title>Archive.md</title>
<ellipse fill="none" stroke="red" cx="348.24" cy="-61.64" rx="40.6" ry="18"/>
<text text-anchor="middle" x="348.24" y="-56.59" font-family="Times,serif" font-size="14.00">Archive</text>
</g>
<!-- Subdirectory.md -->
<g id="node7" class="node">
<title>Subdirectory.md</title>
<ellipse fill="none" stroke="black" cx="208.05" cy="-122.76" rx="58.52" ry="18"/>
<text text-anchor="middle" x="208.05" y="-117.71" font-family="Times,serif" font-size="14.00">Subdirectory</text>
</g>
<!-- Subdirectory/8.md -->
<g id="node8" class="node">
<title>Subdirectory/8.md</title>
<ellipse fill="none" stroke="black" cx="126.42" cy="-274.37" rx="39.58" ry="18"/>
<text text-anchor="middle" x="126.42" y="-269.32" font-family="Times,serif" font-size="14.00">Zettel 8</text>
</g>
<!-- Subdirectory.md&#45;&gt;Subdirectory/8.md -->
<g id="edge4" class="edge">
<title>Subdirectory.md&#45;&gt;Subdirectory/8.md</title>
<path fill="none" stroke="black" d="M198.36,-140.75C184.17,-167.1 157.62,-216.42 141.04,-247.21"/>
<polygon fill="black" stroke="black" points="137.5,-245.41 135.84,-255.88 143.66,-248.73 137.5,-245.41"/>
</g>
<!-- Subdirectory/6.md -->
<g id="node9" class="node">
<title>Subdirectory/6.md</title>
<ellipse fill="none" stroke="black" cx="207.38" cy="-78.72" rx="39.58" ry="18"/>
<text text-anchor="middle" x="207.38" y="-73.67" font-family="Times,serif" font-size="14.00">Zettel 6</text>
</g>
<!-- Subdirectory.md&#45;&gt;Subdirectory/6.md -->
<g id="edge5" class="edge">
<title>Subdirectory.md&#45;&gt;Subdirectory/6.md</title>
<path fill="none" stroke="black" d="M207.77,-104.34C207.77,-104.19 207.77,-104.04 207.76,-103.9"/>
<polygon fill="black" stroke="black" points="211.31,-108.16 207.66,-98.21 204.31,-108.26 211.31,-108.16"/>
</g>
<!-- Subdirectory/6.md&#45;&gt;2.md -->
<g id="edge6" class="edge">
<title>Subdirectory/6.md&#45;&gt;2.md</title>
<path fill="none" stroke="black" d="M167.81,-76.44C154.26,-75.66 138.91,-74.78 124.62,-73.96"/>
<polygon fill="black" stroke="black" points="125.13,-70.42 114.94,-73.34 124.73,-77.41 125.13,-70.42"/>
</g>
<!-- Subdirectory/7.md -->
<g id="node10" class="node">
<title>Subdirectory/7.md</title>
<ellipse fill="none" stroke="black" cx="241.58" cy="-17.75" rx="39.58" ry="18"/>
<text text-anchor="middle" x="241.58" y="-12.7" font-family="Times,serif" font-size="14.00">Zettel 7</text>
</g>
<!-- Subdirectory/6.md&#45;&gt;Subdirectory/7.md -->
<g id="edge7" class="edge">
<title>Subdirectory/6.md&#45;&gt;Subdirectory/7.md</title>
<path fill="none" stroke="black" d="M217.27,-61.09C220.08,-56.08 223.21,-50.5 226.26,-45.05"/>
<polygon fill="black" stroke="black" points="229.75,-46.99 231.59,-36.56 223.64,-43.57 229.75,-46.99"/>
</g>
<!-- index.md -->
<g id="node11" class="node">
<title>index.md</title>
<ellipse fill="none" stroke="red" cx="39.55" cy="-181.49" rx="39.58" ry="18"/>
<text text-anchor="middle" x="39.55" y="-176.44" font-family="Times,serif" font-size="14.00">Zettel 0</text>
</g>
<!-- index.md&#45;&gt;1.md -->
<g id="edge8" class="edge">
<title>index.md&#45;&gt;1.md</title>
<path fill="none" stroke="black" d="M58.01,-165.4C61.9,-162.02 66.07,-158.38 70.19,-154.79"/>
<polygon fill="black" stroke="black" points="72.22,-156.79 77.46,-147.58 67.63,-151.51 72.22,-156.79"/>
</g>
<!-- index.md&#45;&gt;Subdirectory.md -->
<g id="edge9" class="edge">
<title>index.md&#45;&gt;Subdirectory.md</title>
<path fill="none" stroke="black" d="M71.25,-170.44C95.87,-161.86 130.46,-149.8 158.7,-139.96"/>
<polygon fill="black" stroke="black" points="159.5,-143.04 167.79,-136.45 157.19,-136.43 159.5,-143.04"/>
</g>
</g>
</svg>
